<svg data-v-423bf9ae="" xmlns="http://www.w3.org/2000/svg" viewBox="0 0 165.02163313072688 60" class="font"><!----><!----><!----><g data-v-423bf9ae="" id="c685e4bb-a40f-4ff7-a703-3a85e3b1fd78" fill="black" transform="matrix(4.329004138368367,0,0,4.329004138368367,7.272723673905617,-10.129869550639157)"><path d="M9.98 4.03L9.98 4.03L9.98 4.03Q9.57 5.17 9.21 6.34L9.21 6.34L9.21 6.34Q8.85 7.51 8.57 8.84L8.57 8.84L8.57 8.84Q8.30 10.17 8.13 11.71L8.13 11.71L8.13 11.71Q7.97 13.25 7.96 15.12L7.96 15.12L7.96 15.12Q7.88 15.18 7.72 15.27L7.72 15.27L7.72 15.27Q7.56 15.36 7.37 15.47L7.37 15.47L7.37 15.47Q7.17 15.57 6.96 15.68L6.96 15.68L6.96 15.68Q6.75 15.79 6.55 15.89L6.55 15.89L6.55 15.89Q6.36 16.00 6.20 16.08L6.20 16.08L6.20 16.08Q6.04 16.16 5.96 16.20L5.96 16.20L5.96 16.20Q5.97 15.69 6.03 15.07L6.03 15.07L6.03 15.07Q6.09 14.46 6.20 13.78L6.20 13.78L6.20 13.78Q6.30 13.10 6.44 12.37L6.44 12.37L6.44 12.37Q6.58 11.63 6.75 10.89L6.75 10.89L6.75 10.89Q6.25 11.55 5.81 11.99L5.81 11.99L5.81 11.99Q5.36 12.43 5.01 12.70L5.01 12.70L5.01 12.70Q4.61 13.02 4.26 13.20L4.26 13.20L4.26 13.20Q4.12 13.28 3.91 13.21L3.91 13.21L3.91 13.21Q3.71 13.15 3.50 13.01L3.50 13.01L3.50 13.01Q3.30 12.87 3.13 12.71L3.13 12.71L3.13 12.71Q2.97 12.54 2.90 12.43L2.90 12.43L2.90 12.43Q2.83 12.33 2.75 11.81L2.75 11.81L2.75 11.81Q2.67 11.30 2.64 10.34L2.64 10.34L2.64 10.34Q2.34 10.73 2.00 11.15L2.00 11.15L2.00 11.15Q1.66 11.57 1.31 11.99L1.31 11.99L1.31 11.99Q0.96 12.41 0.62 12.81L0.62 12.81L0.62 12.81Q0.27 13.20-0.02 13.52L-0.02 13.52L-0.02 13.52Q-0.32 13.85-0.56 14.09L-0.56 14.09L-0.56 14.09Q-0.79 14.32-0.92 14.42L-0.92 14.42L-0.92 14.42Q-0.99 14.35-1.09 14.25L-1.09 14.25L-1.09 14.25Q-1.19 14.16-1.30 14.05L-1.30 14.05L-1.30 14.05Q-1.40 13.95-1.50 13.84L-1.50 13.84L-1.50 13.84Q-1.61 13.73-1.68 13.64L-1.68 13.64L-1.68 13.64Q-0.68 12.76 0.34 11.17L0.34 11.17L0.34 11.17Q1.37 9.57 2.30 7.32L2.30 7.32L2.30 7.32Q2.40 7.41 2.49 7.49L2.49 7.49L2.49 7.49Q2.58 7.57 2.66 7.66L2.66 7.66L2.66 7.66Q2.71 6.58 2.83 5.26L2.83 5.26L2.83 5.26Q2.94 3.94 3.15 2.34L3.15 2.34L3.15 2.34Q3.19 2.35 3.31 2.47L3.31 2.47L3.31 2.47Q3.44 2.58 3.61 2.76L3.61 2.76L3.61 2.76Q3.78 2.93 3.97 3.13L3.97 3.13L3.97 3.13Q4.16 3.34 4.34 3.52L4.34 3.52L4.34 3.52Q4.51 3.71 4.64 3.85L4.64 3.85L4.64 3.85Q4.77 3.99 4.82 4.05L4.82 4.05L4.82 4.05Q4.81 4.10 4.76 4.34L4.76 4.34L4.76 4.34Q4.71 4.58 4.65 4.96L4.65 4.96L4.65 4.96Q4.58 5.33 4.50 5.82L4.50 5.82L4.50 5.82Q4.43 6.30 4.37 6.85L4.37 6.85L4.37 6.85Q4.31 7.39 4.26 7.97L4.26 7.97L4.26 7.97Q4.22 8.54 4.21 9.10L4.21 9.10L4.21 9.10Q4.20 9.33 4.20 9.64L4.20 9.64L4.20 9.64Q4.20 9.94 4.20 10.26L4.20 10.26L4.20 10.26Q4.20 10.58 4.21 10.89L4.21 10.89L4.21 10.89Q4.22 11.20 4.24 11.45L4.24 11.45L4.24 11.45Q4.26 11.70 4.30 11.86L4.30 11.86L4.30 11.86Q4.33 12.02 4.40 12.04L4.40 12.04L4.40 12.04Q4.47 12.06 4.76 11.84L4.76 11.84L4.76 11.84Q5.04 11.62 5.45 11.20L5.45 11.20L5.45 11.20Q5.85 10.77 6.33 10.17L6.33 10.17L6.33 10.17Q6.80 9.56 7.25 8.81L7.25 8.81L7.25 8.81Q7.45 8.01 7.66 7.27L7.66 7.27L7.66 7.27Q7.87 6.52 8.06 5.89L8.06 5.89L8.06 5.89Q8.26 5.25 8.43 4.75L8.43 4.75L8.43 4.75Q8.60 4.25 8.74 3.92L8.74 3.92L8.74 3.92Q8.87 3.93 9.05 3.94L9.05 3.94L9.05 3.94Q9.22 3.95 9.40 3.97L9.40 3.97L9.40 3.97Q9.58 3.99 9.73 4.00L9.73 4.00L9.73 4.00Q9.88 4.02 9.98 4.03ZM14.07 11.66L14.40 12.00L14.40 12.00Q13.77 12.61 13.22 13.03L13.22 13.03L13.22 13.03Q12.66 13.45 12.15 13.70L12.15 13.70L12.15 13.70Q11.65 13.95 11.19 14.06L11.19 14.06L11.19 14.06Q10.73 14.17 10.29 14.17L10.29 14.17L10.29 14.17Q10.10 14.17 9.88 14.03L9.88 14.03L9.88 14.03Q9.65 13.90 9.46 13.70L9.46 13.70L9.46 13.70Q9.26 13.51 9.13 13.30L9.13 13.30L9.13 13.30Q9.00 13.08 9.00 12.93L9.00 12.93L9.00 12.93Q9.00 12.37 9.16 11.90L9.16 11.90L9.16 11.90Q9.31 11.44 9.56 11.06L9.56 11.06L9.56 11.06Q9.82 10.68 10.14 10.40L10.14 10.40L10.14 10.40Q10.47 10.11 10.82 9.92L10.82 9.92L10.82 9.92Q11.17 9.73 11.52 9.63L11.52 9.63L11.52 9.63Q11.87 9.54 12.16 9.54L12.16 9.54L12.16 9.54Q12.37 9.54 12.58 9.66L12.58 9.66L12.58 9.66Q12.79 9.78 12.96 9.96L12.96 9.96L12.96 9.96Q13.13 10.14 13.24 10.33L13.24 10.33L13.24 10.33Q13.34 10.53 13.34 10.67L13.34 10.67L13.34 10.67Q13.34 10.90 13.15 11.15L13.15 11.15L13.15 11.15Q12.95 11.39 12.60 11.64L12.60 11.64L12.60 11.64Q12.24 11.89 11.74 12.16L11.74 12.16L11.74 12.16Q11.25 12.42 10.64 12.69L10.64 12.69L10.64 12.69Q10.62 12.85 10.62 13.01L10.62 13.01L10.62 13.01Q10.62 13.22 10.72 13.30L10.72 13.30L10.72 13.30Q10.81 13.37 11.06 13.37L11.06 13.37L11.06 13.37Q11.51 13.37 11.91 13.22L11.91 13.22L11.91 13.22Q12.31 13.07 12.68 12.83L12.68 12.83L12.68 12.83Q13.05 12.59 13.39 12.28L13.39 12.28L13.39 12.28Q13.73 11.98 14.07 11.66L14.07 11.66ZM12.00 10.29L12.00 10.29L12.00 10.29Q11.86 10.29 11.70 10.44L11.70 10.44L11.70 10.44Q11.53 10.58 11.37 10.82L11.37 10.82L11.37 10.82Q11.20 11.06 11.05 11.37L11.05 11.37L11.05 11.37Q10.90 11.68 10.79 12.02L10.79 12.02L10.79 12.02Q11.05 11.85 11.29 11.67L11.29 11.67L11.29 11.67Q11.53 11.48 11.72 11.28L11.72 11.28L11.72 11.28Q11.92 11.08 12.03 10.87L12.03 10.87L12.03 10.87Q12.15 10.66 12.15 10.45L12.15 10.45L12.15 10.45Q12.15 10.38 12.11 10.34L12.11 10.34L12.11 10.34Q12.07 10.29 12.00 10.29ZM18.16 12.92L18.16 12.92L18.16 12.92Q18.16 13.09 18.27 13.09L18.27 13.09L18.27 13.09Q18.40 13.09 18.58 13.01L18.58 13.01L18.58 13.01Q18.76 12.93 18.96 12.79L18.96 12.79L18.96 12.79Q19.15 12.66 19.36 12.50L19.36 12.50L19.36 12.50Q19.56 12.33 19.75 12.17L19.75 12.17L19.75 12.17Q19.93 12.02 20.07 11.88L20.07 11.88L20.07 11.88Q20.21 11.74 20.30 11.66L20.30 11.66L20.30 11.66Q20.36 11.72 20.46 11.82L20.46 11.82L20.46 11.82Q20.56 11.92 20.63 12.00L20.63 12.00L20.63 12.00Q20.45 12.17 20.23 12.39L20.23 12.39L20.23 12.39Q20.00 12.61 19.75 12.84L19.75 12.84L19.75 12.84Q19.49 13.07 19.21 13.29L19.21 13.29L19.21 13.29Q18.94 13.50 18.66 13.67L18.66 13.67L18.66 13.67Q18.39 13.84 18.13 13.94L18.13 13.94L18.13 13.94Q17.87 14.04 17.64 14.04L17.64 14.04L17.64 14.04Q17.51 14.04 17.34 13.93L17.34 13.93L17.34 13.93Q17.16 13.82 16.99 13.65L16.99 13.65L16.99 13.65Q16.83 13.49 16.72 13.31L16.72 13.31L16.72 13.31Q16.60 13.13 16.60 12.98L16.60 12.98L16.60 12.98Q16.60 12.67 16.65 12.33L16.65 12.33L16.65 12.33Q16.34 12.60 16.05 12.84L16.05 12.84L16.05 12.84Q15.76 13.09 15.47 13.31L15.47 13.31L15.47 13.31Q15.18 13.52 14.88 13.70L14.88 13.70L14.88 13.70Q14.57 13.88 14.23 14.01L14.23 14.01L14.23 14.01Q14.13 14.05 14.05 14.05L14.05 14.05L14.05 14.05Q13.99 14.05 13.88 13.99L13.88 13.99L13.88 13.99Q13.77 13.92 13.67 13.81L13.67 13.81L13.67 13.81Q13.56 13.71 13.49 13.57L13.49 13.57L13.49 13.57Q13.41 13.44 13.41 13.32L13.41 13.32L13.41 13.32Q13.41 13.04 13.52 12.69L13.52 12.69L13.52 12.69Q13.62 12.35 13.83 11.98L13.83 11.98L13.83 11.98Q14.03 11.61 14.32 11.25L14.32 11.25L14.32 11.25Q14.61 10.88 14.98 10.56L14.98 10.56L14.98 10.56Q15.35 10.23 15.79 9.97L15.79 9.97L15.79 9.97Q16.24 9.71 16.74 9.55L16.74 9.55L16.74 9.55Q16.84 9.56 16.99 9.64L16.99 9.64L16.99 9.64Q17.14 9.71 17.27 9.78L17.27 9.78L17.27 9.78Q17.51 9.08 17.83 8.37L17.83 8.37L17.83 8.37Q18.15 7.66 18.51 7.01L18.51 7.01L18.51 7.01Q18.87 6.36 19.26 5.79L19.26 5.79L19.26 5.79Q19.65 5.22 20.04 4.77L20.04 4.77L20.04 4.77Q20.43 4.33 20.81 4.06L20.81 4.06L20.81 4.06Q21.18 3.79 21.53 3.73L21.53 3.73L21.53 3.73Q21.68 3.73 21.84 3.82L21.84 3.82L21.84 3.82Q22.01 3.92 22.16 4.06L22.16 4.06L22.16 4.06Q22.31 4.20 22.42 4.35L22.42 4.35L22.42 4.35Q22.52 4.50 22.55 4.61L22.55 4.61L22.55 4.61Q22.55 4.92 22.39 5.34L22.39 5.34L22.39 5.34Q22.24 5.76 21.96 6.24L21.96 6.24L21.96 6.24Q21.68 6.72 21.30 7.25L21.30 7.25L21.30 7.25Q20.92 7.77 20.49 8.32L20.49 8.32L20.49 8.32Q20.05 8.86 19.57 9.40L19.57 9.40L19.57 9.40Q19.09 9.94 18.60 10.45L18.60 10.45L18.60 10.45Q18.40 11.14 18.28 11.77L18.28 11.77L18.28 11.77Q18.16 12.41 18.16 12.92ZM21.59 4.55L21.59 4.55L21.59 4.55Q21.47 4.55 21.30 4.72L21.30 4.72L21.30 4.72Q21.14 4.89 20.93 5.20L20.93 5.20L20.93 5.20Q20.72 5.50 20.49 5.92L20.49 5.92L20.49 5.92Q20.25 6.34 20.02 6.83L20.02 6.83L20.02 6.83Q19.78 7.32 19.54 7.88L19.54 7.88L19.54 7.88Q19.30 8.43 19.09 9.00L19.09 9.00L19.09 9.00Q19.60 8.37 20.06 7.73L20.06 7.73L20.06 7.73Q20.52 7.10 20.87 6.54L20.87 6.54L20.87 6.54Q21.22 5.97 21.42 5.50L21.42 5.50L21.42 5.50Q21.63 5.02 21.63 4.72L21.63 4.72L21.63 4.72Q21.63 4.68 21.63 4.61L21.63 4.61L21.63 4.61Q21.62 4.55 21.59 4.55ZM15.10 12.69L15.10 12.69L15.10 12.69Q15.33 12.69 15.77 12.37L15.77 12.37L15.77 12.37Q16.21 12.05 16.78 11.52L16.78 11.52L16.78 11.52Q16.84 11.20 16.93 10.88L16.93 10.88L16.93 10.88Q17.01 10.55 17.12 10.22L17.12 10.22L17.12 10.22Q16.73 10.49 16.35 10.83L16.35 10.83L16.35 10.83Q15.97 11.17 15.67 11.50L15.67 11.50L15.67 11.50Q15.38 11.84 15.20 12.13L15.20 12.13L15.20 12.13Q15.02 12.42 15.02 12.57L15.02 12.57L15.02 12.57Q15.02 12.69 15.10 12.69ZM23.86 13.08L23.86 13.08L23.86 13.08Q23.86 13.12 23.91 13.12L23.91 13.12L23.91 13.12Q23.98 13.12 24.13 13.03L24.13 13.03L24.13 13.03Q24.29 12.94 24.49 12.80L24.49 12.80L24.49 12.80Q24.68 12.67 24.90 12.50L24.90 12.50L24.90 12.50Q25.12 12.33 25.32 12.16L25.32 12.16L25.32 12.16Q25.52 12.00 25.68 11.87L25.68 11.87L25.68 11.87Q25.84 11.73 25.92 11.66L25.92 11.66L25.92 11.66Q25.98 11.72 26.07 11.82L26.07 11.82L26.07 11.82Q26.15 11.92 26.23 12.00L26.23 12.00L26.23 12.00Q26.08 12.15 25.85 12.36L25.85 12.36L25.85 12.36Q25.62 12.57 25.35 12.80L25.35 12.80L25.35 12.80Q25.08 13.03 24.79 13.25L24.79 13.25L24.79 13.25Q24.50 13.47 24.23 13.65L24.23 13.65L24.23 13.65Q23.95 13.82 23.71 13.93L23.71 13.93L23.71 13.93Q23.47 14.04 23.32 14.04L23.32 14.04L23.32 14.04Q23.20 14.04 23.06 13.97L23.06 13.97L23.06 13.97Q22.91 13.90 22.79 13.78L22.79 13.78L22.79 13.78Q22.66 13.67 22.58 13.54L22.58 13.54L22.58 13.54Q22.49 13.40 22.49 13.28L22.49 13.28L22.49 13.28Q22.49 13.17 22.57 12.86L22.57 12.86L22.57 12.86Q22.65 12.55 22.77 12.14L22.77 12.14L22.77 12.14Q22.46 12.56 22.17 12.88L22.17 12.88L22.17 12.88Q21.88 13.19 21.63 13.42L21.63 13.42L21.63 13.42Q21.38 13.64 21.20 13.78L21.20 13.78L21.20 13.78Q21.01 13.92 20.92 13.99L20.92 13.99L20.92 13.99Q20.87 14.02 20.79 14.04L20.79 14.04L20.79 14.04Q20.72 14.05 20.66 14.05L20.66 14.05L20.66 14.05Q20.53 14.05 20.37 13.98L20.37 13.98L20.37 13.98Q20.21 13.90 20.08 13.78L20.08 13.78L20.08 13.78Q19.95 13.67 19.85 13.52L19.85 13.52L19.85 13.52Q19.76 13.38 19.76 13.25L19.76 13.25L19.76 13.25Q19.76 13.10 19.86 12.75L19.86 12.75L19.86 12.75Q19.96 12.40 20.13 11.92L20.13 11.92L20.13 11.92Q20.30 11.43 20.52 10.83L20.52 10.83L20.52 10.83Q20.75 10.23 21.01 9.56L21.01 9.56L21.01 9.56Q21.02 9.53 21.03 9.53L21.03 9.53L21.03 9.53Q21.04 9.54 21.07 9.54L21.07 9.54L21.07 9.54Q21.20 9.56 21.42 9.64L21.42 9.64L21.42 9.64Q21.65 9.73 21.86 9.83L21.86 9.83L21.86 9.83Q22.08 9.93 22.24 10.02L22.24 10.02L22.24 10.02Q22.39 10.12 22.39 10.15L22.39 10.15L22.39 10.15Q22.37 10.20 22.29 10.38L22.29 10.38L22.29 10.38Q22.20 10.55 22.09 10.80L22.09 10.80L22.09 10.80Q21.98 11.05 21.85 11.34L21.85 11.34L21.85 11.34Q21.72 11.63 21.62 11.90L21.62 11.90L21.62 11.90Q21.51 12.17 21.44 12.38L21.44 12.38L21.44 12.38Q21.38 12.60 21.38 12.70L21.38 12.70L21.38 12.70Q21.38 12.73 21.40 12.73L21.40 12.73L21.40 12.73Q21.46 12.73 21.64 12.58L21.64 12.58L21.64 12.58Q21.83 12.43 22.10 12.12L22.10 12.12L22.10 12.12Q22.37 11.81 22.71 11.31L22.71 11.31L22.71 11.31Q23.05 10.81 23.42 10.12L23.42 10.12L23.61 9.58L23.61 9.58Q23.63 9.52 23.70 9.52L23.70 9.52L23.70 9.52Q23.75 9.52 23.91 9.61L23.91 9.61L23.91 9.61Q24.07 9.71 24.25 9.83L24.25 9.83L24.25 9.83Q24.43 9.95 24.58 10.07L24.58 10.07L24.58 10.07Q24.72 10.19 24.73 10.23L24.73 10.23L24.73 10.23Q24.73 10.25 24.73 10.31L24.73 10.31L24.73 10.31Q24.72 10.36 24.71 10.39L24.71 10.39L24.71 10.39Q24.64 10.58 24.55 10.82L24.55 10.82L24.55 10.82Q24.46 11.07 24.37 11.34L24.37 11.34L24.37 11.34Q24.27 11.61 24.19 11.89L24.19 11.89L24.19 11.89Q24.10 12.16 24.02 12.40L24.02 12.40L24.02 12.40Q23.95 12.63 23.91 12.81L23.91 12.81L23.91 12.81Q23.86 13.00 23.86 13.08ZM25.78 11.79L25.78 11.79L25.78 11.79Q25.94 11.64 26.14 11.45L26.14 11.45L26.14 11.45Q26.34 11.26 26.54 11.03L26.54 11.03L26.54 11.03Q26.74 10.81 26.92 10.55L26.92 10.55L26.92 10.55Q27.09 10.29 27.19 9.99L27.19 9.99L27.19 9.99Q27.22 9.83 27.28 9.66L27.28 9.66L27.28 9.66Q27.34 9.48 27.41 9.34L27.41 9.34L27.41 9.34Q27.48 9.19 27.55 9.10L27.55 9.10L27.55 9.10Q27.62 9.00 27.67 9.00L27.67 9.00L27.67 9.00Q27.75 9.05 27.92 9.18L27.92 9.18L27.92 9.18Q28.08 9.32 28.25 9.47L28.25 9.47L28.25 9.47Q28.41 9.62 28.54 9.74L28.54 9.74L28.54 9.74Q28.66 9.87 28.66 9.90L28.66 9.90L28.66 9.90Q28.58 10.21 28.58 10.47L28.58 10.47L28.58 10.47Q28.59 10.72 28.63 10.96L28.63 10.96L28.63 10.96Q28.66 11.21 28.71 11.49L28.71 11.49L28.71 11.49Q28.75 11.76 28.75 12.13L28.75 12.13L28.75 12.13Q28.75 12.35 28.68 12.63L28.68 12.63L28.68 12.63Q28.61 12.91 28.43 13.14L28.43 13.14L28.43 13.14Q28.78 12.93 29.12 12.68L29.12 12.68L29.12 12.68Q29.46 12.42 29.73 12.20L29.73 12.20L29.73 12.20Q30.04 11.93 30.33 11.66L30.33 11.66L30.64 12.00L30.64 12.00Q30.41 12.21 30.15 12.45L30.15 12.45L30.15 12.45Q29.89 12.69 29.60 12.92L29.60 12.92L29.60 12.92Q29.32 13.15 29.03 13.36L29.03 13.36L29.03 13.36Q28.73 13.58 28.44 13.74L28.44 13.74L28.44 13.74Q28.16 13.90 27.89 14L27.89 14L27.89 14Q27.62 14.10 27.39 14.10L27.39 14.10L27.39 14.10Q27.19 14.10 26.95 14L26.95 14L26.95 14Q26.71 13.90 26.50 13.77L26.50 13.77L26.50 13.77Q26.29 13.63 26.13 13.48L26.13 13.48L26.13 13.48Q25.98 13.33 25.95 13.23L25.95 13.23L25.95 13.23Q25.95 13.21 25.98 13.17L25.98 13.17L25.98 13.17Q26.00 13.13 26.04 13.08L26.04 13.08L26.04 13.08Q26.08 13.03 26.12 12.99L26.12 12.99L26.12 12.99Q26.15 12.95 26.17 12.95L26.17 12.95L26.17 12.95Q26.22 12.95 26.34 13.02L26.34 13.02L26.34 13.02Q26.46 13.08 26.75 13.08L26.75 13.08L26.75 13.08Q26.91 13.08 27.02 13.00L27.02 13.00L27.02 13.00Q27.13 12.91 27.21 12.78L27.21 12.78L27.21 12.78Q27.28 12.64 27.32 12.46L27.32 12.46L27.32 12.46Q27.35 12.28 27.35 12.09L27.35 12.09L27.35 12.09Q27.35 11.80 27.32 11.53L27.32 11.53L27.32 11.53Q27.30 11.26 27.26 11.01L27.26 11.01L27.26 11.01Q27.15 11.14 27.00 11.29L27.00 11.29L27.00 11.29Q26.84 11.44 26.69 11.59L26.69 11.59L26.69 11.59Q26.54 11.74 26.38 11.88L26.38 11.88L26.38 11.88Q26.23 12.02 26.11 12.13L26.11 12.13L25.78 11.79ZM34.17 13.08L34.17 13.08L34.17 13.08Q34.17 13.12 34.21 13.12L34.21 13.12L34.21 13.12Q34.27 13.12 34.41 13.03L34.41 13.03L34.41 13.03Q34.56 12.94 34.74 12.80L34.74 12.80L34.74 12.80Q34.92 12.67 35.13 12.50L35.13 12.50L35.13 12.50Q35.34 12.33 35.53 12.16L35.53 12.16L35.53 12.16Q35.72 12.00 35.88 11.86L35.88 11.86L35.88 11.86Q36.03 11.72 36.11 11.65L36.11 11.65L36.11 11.65Q36.18 11.71 36.27 11.81L36.27 11.81L36.27 11.81Q36.36 11.92 36.44 12.00L36.44 12.00L36.44 12.00Q36.27 12.15 36.04 12.36L36.04 12.36L36.04 12.36Q35.81 12.58 35.55 12.81L35.55 12.81L35.55 12.81Q35.29 13.04 35.01 13.27L35.01 13.27L35.01 13.27Q34.73 13.50 34.46 13.68L34.46 13.68L34.46 13.68Q34.19 13.86 33.95 13.97L33.95 13.97L33.95 13.97Q33.71 14.08 33.54 14.08L33.54 14.08L33.54 14.08Q33.41 14.08 33.27 14.03L33.27 14.03L33.27 14.03Q33.12 13.99 33.00 13.90L33.00 13.90L33.00 13.90Q32.87 13.82 32.79 13.70L32.79 13.70L32.79 13.70Q32.71 13.58 32.71 13.44L32.71 13.44L32.71 13.44Q32.71 13.38 32.71 13.31L32.71 13.31L32.71 13.31Q32.70 13.23 32.72 13.10L32.72 13.10L32.72 13.10Q32.73 12.97 32.77 12.79L32.77 12.79L32.77 12.79Q32.81 12.61 32.89 12.35L32.89 12.35L32.89 12.35Q32.67 12.58 32.36 12.84L32.36 12.84L32.36 12.84Q32.06 13.10 31.73 13.34L31.73 13.34L31.73 13.34Q31.39 13.57 31.05 13.76L31.05 13.76L31.05 13.76Q30.71 13.95 30.43 14.04L30.43 14.04L30.43 14.04Q30.39 14.05 30.37 14.05L30.37 14.05L30.37 14.05Q30.35 14.05 30.33 14.05L30.33 14.05L30.33 14.05Q30.26 14.05 30.15 13.99L30.15 13.99L30.15 13.99Q30.04 13.92 29.93 13.81L29.93 13.81L29.93 13.81Q29.82 13.69 29.74 13.55L29.74 13.55L29.74 13.55Q29.66 13.41 29.66 13.26L29.66 13.26L29.66 13.26Q29.66 13.22 29.70 12.99L29.70 12.99L29.70 12.99Q29.74 12.76 29.90 12.40L29.90 12.40L29.90 12.40Q30.05 12.04 30.35 11.59L30.35 11.59L30.35 11.59Q30.65 11.14 31.17 10.67L31.17 10.67L31.17 10.67Q31.44 10.43 31.75 10.22L31.75 10.22L31.75 10.22Q32.01 10.04 32.34 9.86L32.34 9.86L32.34 9.86Q32.68 9.67 33.04 9.56L33.04 9.56L33.04 9.56Q33.06 9.56 33.07 9.56L33.07 9.56L33.07 9.56Q33.08 9.55 33.10 9.56L33.10 9.56L33.10 9.56Q33.18 9.59 33.29 9.65L33.29 9.65L33.29 9.65Q33.41 9.71 33.52 9.77L33.52 9.77L33.52 9.77Q33.63 9.84 33.72 9.90L33.72 9.90L33.72 9.90Q33.80 9.97 33.83 10.01L33.83 10.01L33.83 10.01Q33.84 10.02 33.83 10.03L33.83 10.03L33.82 10.04L33.82 10.04Q33.51 10.21 33.24 10.41L33.24 10.41L33.24 10.41Q32.96 10.61 32.75 10.79L32.75 10.79L32.75 10.79Q32.50 11.00 32.29 11.20L32.29 11.20L32.29 11.20Q31.79 11.70 31.60 12.06L31.60 12.06L31.60 12.06Q31.41 12.41 31.41 12.57L31.41 12.57L31.41 12.57Q31.41 12.69 31.51 12.69L31.51 12.69L31.51 12.69Q31.60 12.69 31.75 12.61L31.75 12.61L31.75 12.61Q31.90 12.53 32.08 12.40L32.08 12.40L32.08 12.40Q32.27 12.26 32.49 12.08L32.49 12.08L32.49 12.08Q32.71 11.90 32.95 11.70L32.95 11.70L32.95 11.70Q33.16 11.53 33.36 11.33L33.36 11.33L33.36 11.33Q33.53 11.17 33.71 10.96L33.71 10.96L33.71 10.96Q33.90 10.75 34.03 10.53L34.03 10.53L34.03 10.53Q34.03 10.52 34.04 10.51L34.04 10.51L34.04 10.51Q34.04 10.51 34.06 10.51L34.06 10.51L34.06 10.51Q34.13 10.57 34.23 10.69L34.23 10.69L34.23 10.69Q34.32 10.82 34.41 10.97L34.41 10.97L34.41 10.97Q34.49 11.12 34.55 11.26L34.55 11.26L34.55 11.26Q34.60 11.40 34.60 11.48L34.60 11.48L34.60 11.48Q34.45 11.80 34.36 12.06L34.36 12.06L34.36 12.06Q34.28 12.33 34.23 12.52L34.23 12.52L34.23 12.52Q34.19 12.72 34.18 12.86L34.18 12.86L34.18 12.86Q34.17 13.00 34.17 13.08Z"></path></g><!----><!----></svg>